HIERARCHY
ROOT root
{
	OFFSET 0.000000 0.000000 0.000000
	CHANNELS 6 Xposition Yposition Zposition Zrotation Yrotation Xrotation
	JOINT lhip
	{
		OFFSET 0.058581 -0.082280 -0.017664
		CHANNELS 3 Zrotation Yrotation Xrotation
		JOINT lknee
		{
			OFFSET 0.043451 -0.386469 0.008037
			CHANNELS 3 Zrotation Yrotation Xrotation
			JOINT lankle
			{
				OFFSET -0.014790 -0.426874 -0.037428
				CHANNELS 3 Zrotation Yrotation Xrotation
				JOINT ltoe
				{
					OFFSET 0.041054 -0.060286 0.122042
					CHANNELS 3 Zrotation Yrotation Xrotation
					End Site
					{
						OFFSET 0.000000 0.000000 0.000000
					}
				}
			}
		}
	}
	JOINT rhip
	{
		OFFSET -0.060310 -0.090513 -0.013543
		CHANNELS 3 Zrotation Yrotation Xrotation
		JOINT rknee
		{
			OFFSET -0.043257 -0.383688 -0.004843
			CHANNELS 3 Zrotation Yrotation Xrotation
			JOINT rankle
			{
				OFFSET 0.019056 -0.420046 -0.034562
				CHANNELS 3 Zrotation Yrotation Xrotation
				JOINT rtoe
				{
					OFFSET -0.034840 -0.062106 0.130323
					CHANNELS 3 Zrotation Yrotation Xrotation
					End Site
					{
						OFFSET 0.000000 0.000000 0.000000
					}
				}
			}
		}
	}
	JOINT lowerback
	{
		OFFSET 0.004439 0.124404 -0.038385
		CHANNELS 3 Zrotation Yrotation Xrotation
		JOINT upperback
		{
			OFFSET 0.004488 0.137956 0.026820
			CHANNELS 3 Zrotation Yrotation Xrotation
			JOINT chest
			{
				OFFSET -0.002265 0.056032 0.002855
				CHANNELS 3 Zrotation Yrotation Xrotation
				JOINT lowerneck
				{
					OFFSET -0.013390 0.211636 -0.033468
					CHANNELS 3 Zrotation Yrotation Xrotation
					JOINT upperneck
					{
						OFFSET 0.010113 0.088937 0.050410
						CHANNELS 3 Zrotation Yrotation Xrotation
						End Site
						{
							OFFSET 0.000000 0.000000 0.000000
						}
					}
				}
				JOINT lclavicle
				{
					OFFSET 0.071702 0.114000 -0.018898
					CHANNELS 3 Zrotation Yrotation Xrotation
					JOINT lshoulder
					{
						OFFSET 0.122921 0.045205 -0.019046
						CHANNELS 3 Zrotation Yrotation Xrotation
						JOINT lelbow
						{
							OFFSET 0.255332 -0.015649 -0.022946
							CHANNELS 3 Zrotation Yrotation Xrotation
							JOINT lwrist
							{
								OFFSET 0.265709 0.012698 -0.007375
								CHANNELS 3 Zrotation Yrotation Xrotation
								End Site
								{
									OFFSET 0.000000 0.000000 0.000000
								}
							}
						}
					}
				}
				JOINT rclavicle
				{
					OFFSET -0.082954 0.112472 -0.023707
					CHANNELS 3 Zrotation Yrotation Xrotation
					JOINT rshoulder
					{
						OFFSET -0.113228 0.046853 -0.008472
						CHANNELS 3 Zrotation Yrotation Xrotation
						JOINT relbow
						{
							OFFSET -0.260127 -0.014369 -0.031269
							CHANNELS 3 Zrotation Yrotation Xrotation
							JOINT rwrist
							{
								OFFSET -0.269108 0.006794 -0.006027
								CHANNELS 3 Zrotation Yrotation Xrotation
								End Site
								{
									OFFSET 0.000000 0.000000 0.000000
								}
							}
						}
					}
				}
			}
		}
	}
}
MOTION
Frames: 8
Frame Time: 0.033333
-1.285480 2.975024 0.982734 -21.066412 4.458783 85.625631 3.068003 3.375073 8.627368 -7.483567 -5.382865 -6.868417 4.630814 11.383637 -12.171583 0.000000 -0.000000 0.000000 -4.280861 4.914397 -11.703505 4.434318 9.070279 32.027824 9.072670 0.229486 -17.663714 0.000000 -0.000000 0.000000 -1.410502 -3.067040 5.727468 1.805658 -1.390391 6.538602 -1.697925 -0.832882 4.060647 0.932330 18.978088 -0.812558 -7.123611 12.267841 18.708689 -26.737701 -1.704798 -0.206814 -53.908465 -15.382759 11.762630 12.641394 -35.321411 -1.450194 2.411454 -6.805835 -8.199529 30.541977 3.036662 4.144293 51.333441 8.440749 16.803702 -11.785214 22.026984 -8.877277 4.829926 4.153363 -8.755716 
-1.292562 2.973480 0.983032 -18.280512 4.279995 85.699310 3.539341 3.028458 8.752895 -7.552872 -6.679452 -6.765231 3.947561 10.508683 -12.383029 0.000000 -0.000000 0.000000 -4.341058 5.127731 -11.673039 4.809596 9.947562 32.248357 9.041708 0.855331 -15.729942 0.000000 -0.000000 0.000000 -1.433150 -3.156105 5.771456 1.625294 -1.320146 6.493432 -1.694592 -0.815467 3.960419 0.903758 18.548296 -0.884782 -6.899700 11.790695 18.550390 -26.642852 -2.016756 -0.272538 -53.888802 -14.948616 11.536782 12.015610 -32.147563 -1.316093 2.074473 -6.684235 -7.760837 30.548698 3.252464 4.149527 51.280388 8.818008 16.749387 -11.747026 22.380887 -8.875160 4.773375 4.276939 -8.825117 
-1.300029 2.972782 0.983155 -15.662981 3.877392 85.861820 3.774308 2.518662 8.546920 -7.661570 -7.875207 -6.377467 3.614631 9.861311 -12.623205 0.000000 -0.000000 0.000000 -4.463272 5.228511 -11.729260 5.086025 10.296968 32.857050 9.023482 0.926227 -13.803938 0.000000 -0.000000 0.000000 -1.712334 -2.971160 5.676973 1.530393 -1.316716 6.572079 -1.681404 -0.881191 3.732655 0.964556 17.920889 -1.140046 -6.829517 11.021801 18.411178 -26.684329 -2.356093 -0.180620 -53.526442 -14.438663 11.242449 11.332612 -28.777069 -1.259883 1.746482 -6.543904 -7.270541 30.519126 3.559451 4.108675 51.298022 9.173583 16.786136 -11.835054 22.794008 -8.852596 4.704370 4.418247 -9.116817 
-1.309521 2.970545 0.983126 -12.656086 3.257087 85.883059 3.842122 2.070255 8.605365 -7.577338 -9.358370 -6.005866 3.136116 9.095307 -12.905512 0.000000 -0.000000 0.000000 -4.542916 5.030492 -11.072949 4.906325 9.882087 33.670451 8.920157 0.083820 -12.747037 0.000000 -0.000000 0.000000 -1.959001 -2.679307 5.478646 1.348504 -1.316957 6.662505 -1.741404 -0.877443 3.533536 1.218575 16.974025 -1.613831 -6.923908 10.094653 18.426102 -26.974356 -2.529399 -0.065167 -52.817534 -13.539257 10.696765 10.337052 -24.726886 -1.033160 1.426449 -6.308022 -6.482759 30.477830 3.913186 4.015835 51.192544 9.436632 16.771877 -11.883533 23.620723 -8.857787 4.500725 4.598499 -9.334368 
-1.315458 2.968928 0.983210 -11.032379 2.926371 85.864529 3.918701 1.896465 8.688814 -7.485145 -10.089101 -5.799776 2.770879 8.603157 -13.049556 0.000000 -0.000000 0.000000 -4.430619 4.802411 -10.333353 4.653492 9.467069 33.592434 8.695300 -0.587247 -12.843315 0.000000 -0.000000 0.000000 -1.994531 -2.483399 5.315061 1.192484 -1.297773 6.723859 -1.809071 -0.810794 3.451790 1.254471 16.526680 -1.706500 -6.982253 9.644450 18.211991 -27.167926 -2.434812 -0.042751 -52.354034 -12.818646 10.334151 9.788698 -22.746579 -0.906962 1.220033 -6.058640 -6.046936 30.478154 4.107980 3.905284 51.109315 9.543743 16.742540 -11.902670 24.301092 -8.802764 4.310065 4.585388 -9.418394 
-1.323619 2.967021 0.983261 -9.252997 2.484966 85.886256 3.995401 1.743581 8.725939 -7.317617 -10.802779 -5.562832 2.251027 8.041444 -13.251781 0.000000 -0.000000 0.000000 -4.090687 4.422637 -9.378175 4.263425 9.019562 33.195945 8.161896 -1.609507 -13.647784 0.000000 -0.000000 0.000000 -2.015038 -2.184205 5.072197 0.960784 -1.143524 6.712473 -1.901618 -0.672595 3.348206 1.382975 16.153205 -1.827629 -6.959252 9.158392 18.158784 -27.402108 -2.025569 0.159071 -51.719973 -11.661054 9.842812 9.269334 -20.960469 -0.805177 1.013530 -5.852192 -5.792848 30.489820 4.352970 3.824737 51.001194 9.749725 16.706798 -12.015244 25.250602 -8.786286 4.061455 4.597615 -9.612688 
-1.331892 2.965142 0.983405 -7.597418 2.028658 85.983596 4.021885 1.549324 8.527925 -7.151037 -11.327779 -5.151962 1.676826 7.552470 -13.475546 0.000000 -0.000000 0.000000 -3.688021 3.821211 -8.300956 3.711062 8.468485 32.311944 7.478922 -2.708475 -14.664426 0.000000 -0.000000 0.000000 -2.051733 -1.862196 4.753922 0.757502 -1.037535 6.607092 -1.967025 -0.544334 3.331725 1.504056 15.795424 -2.038976 -6.987228 8.694573 18.114020 -27.641379 -1.293766 0.393467 -51.119263 -10.439588 9.403885 8.877936 -19.930121 -0.571731 0.889447 -5.816524 -5.830962 30.519776 4.481005 3.644407 50.833133 9.973938 16.744480 -12.010492 26.144561 -8.539212 3.774480 4.836355 -9.735806 
-1.340097 2.963039 0.983650 -6.176668 1.638393 86.002142 4.093629 1.436074 8.385774 -7.001288 -11.659956 -4.687386 1.122920 7.073365 -13.629835 0.000000 -0.000000 0.000000 -3.303823 3.195317 -6.911156 3.146478 7.831005 30.824571 6.790452 -3.658168 -15.548280 0.000000 -0.000000 0.000000 -1.936603 -1.536786 4.438059 0.540709 -0.892386 6.522704 -2.039956 -0.375785 3.302142 1.625495 15.417940 -2.145960 -7.011710 8.268226 18.098723 -27.883403 -0.448393 0.683909 -50.601607 -9.113390 8.989191 8.600067 -19.521427 -0.367768 0.829973 -5.806727 -6.074692 30.536111 4.568822 3.564991 50.660314 10.209386 16.708129 -12.062769 27.096387 -8.333888 3.376948 5.055067 -9.837870 
